<svg width="25" height="25" viewBox="0 0 25 25" fill="none" xmlns="http://www.w3.org/2000/svg">
<path d="M12.4778 0.390614C9.24199 0.396425 6.30405 1.67152 4.13501 3.74437L2.39116 2.00053C1.65288 1.26225 0.390625 1.7851 0.390625 2.82914V9.37499C0.390625 10.0222 0.915283 10.5469 1.5625 10.5469H8.10835C9.15239 10.5469 9.67524 9.28461 8.93701 8.54633L6.89844 6.50775C8.40547 5.09667 10.3555 4.31503 12.4272 4.29716C16.9389 4.25819 20.7418 7.90932 20.7028 12.5707C20.6658 16.9926 17.0809 20.7031 12.5 20.7031C10.4918 20.7031 8.5939 19.9864 7.09814 18.674C6.86655 18.4708 6.5168 18.4832 6.29893 18.701L4.3623 20.6376C4.12441 20.8755 4.13618 21.2634 4.38584 21.4889C6.53311 23.4284 9.37861 24.6094 12.5 24.6094C19.1878 24.6094 24.6093 19.1878 24.6094 12.5001C24.6094 5.81996 19.1579 0.378651 12.4778 0.390614Z" fill="white"/>
</svg>
