<svg width="1440" height="334" viewBox="0 0 1440 334" fill="none" xmlns="http://www.w3.org/2000/svg">
<path d="M0.586914 175.541C0.586914 175.541 333.026 14.0123 426.808 33.1225C510.958 50.1774 505.302 115.862 503.221 129.207C502.595 133.053 502.327 136.948 502.42 140.844C503.141 162.543 514.72 215.283 609.649 221.848C711.756 228.948 886.193 130.088 935.738 100.595C945.878 94.5425 956.344 89.0538 967.088 84.1539C1011.78 63.7627 1128.75 12.0906 1181.92 4.51066C1248.41 -4.99102 1273.35 5.68498 1285.23 52.019C1297.1 98.353 1336.27 137.427 1439.57 101.903" stroke="white" stroke-miterlimit="10"/>
<path d="M0.586914 203.138C0.586914 203.138 333.026 41.6098 426.808 60.6132C510.958 77.6682 505.302 143.352 503.221 156.831C502.594 160.677 502.326 164.573 502.42 168.468C503.141 190.167 514.72 242.88 609.649 249.472C711.756 256.545 886.193 157.712 935.738 128.193C945.884 122.15 956.349 116.662 967.088 111.751C1011.78 91.3869 1128.75 39.6882 1181.92 32.1082C1248.41 22.6065 1273.35 33.3093 1285.23 79.6166C1297.1 125.924 1336.27 165.025 1439.57 129.5" stroke="white" stroke-miterlimit="10"/>
<path d="M0.586914 230.763C0.586914 230.763 333.026 69.2342 426.808 88.2375C510.958 105.292 505.302 170.977 503.221 184.322C502.595 188.168 502.327 192.063 502.42 195.959C503.141 217.658 514.72 270.397 609.649 276.963C711.756 284.17 886.246 185.256 935.738 155.897C945.878 149.844 956.344 144.356 967.088 139.456C1011.78 119.065 1128.75 67.3926 1181.92 59.8126C1248.41 50.3109 1273.35 60.9869 1285.23 107.321C1297.1 153.655 1336.27 192.729 1439.57 157.205" stroke="white" stroke-miterlimit="10"/>
<path d="M0.586914 258.36C0.586914 258.36 333.026 96.8317 426.808 115.862C510.958 132.917 505.302 198.601 503.221 211.946C502.594 215.792 502.326 219.688 502.42 223.583C503.141 245.282 514.72 297.995 609.649 304.588C711.756 311.767 886.246 212.934 935.738 183.414C945.884 177.372 956.349 171.884 967.088 166.973C1011.78 146.609 1128.75 94.91 1181.92 87.33C1248.41 77.8284 1273.35 88.5311 1285.23 134.838C1297.1 181.146 1336.27 220.247 1439.57 184.722" stroke="white" stroke-miterlimit="10"/>
<path d="M0.586914 285.985C0.586914 285.985 333.026 124.456 426.808 143.459C510.958 160.514 505.302 226.199 503.221 239.544C502.595 243.39 502.327 247.285 502.42 251.181C503.141 272.88 514.72 325.619 609.649 332.185C711.756 339.285 886.193 240.425 935.738 210.932C945.878 204.879 956.344 199.391 967.088 194.491C1011.78 174.1 1128.75 122.428 1181.92 114.848C1248.41 105.346 1273.35 116.022 1285.23 162.356C1297.1 208.69 1336.27 247.764 1439.57 212.24" stroke="white" stroke-miterlimit="10"/>
<path d="M242.373 90.6713L251.863 81.1819C252.32 80.7243 253.062 80.7243 253.52 81.1819L254.627 82.2887C255.084 82.7456 255.084 83.4861 254.629 83.944L247.108 91.5L254.629 99.0559C255.084 99.5139 255.084 100.254 254.627 100.711L253.52 101.818C253.062 102.276 252.32 102.276 251.863 101.818L242.373 92.3286C241.916 91.871 241.916 91.129 242.373 90.6713Z" fill="black"/>
</svg>
