<svg width="184" height="195" viewBox="0 0 184 195" fill="none" xmlns="http://www.w3.org/2000/svg">
<circle cx="90" cy="90" r="90" fill="#CAB0B9"/>
<path d="M165.079 112.881L170.831 126.243L171.028 126.345L167.22 134.401L162.679 141.583L160.291 145.053L157.475 148.176L154.407 151.666L151.232 154.728L145.923 159.535L138.159 164.806L134.447 167.097L130.055 169.408L120.967 173.501L113.887 176.032L105.554 177.67L98.637 178.801L89.7318 179.524L76.2238 178.985L63.0944 176.538L52.493 172.551L44.1141 167.854L35.3243 162.204L30.7434 157.612L32.4683 153.553L43.0934 152.852L52.618 143.664L64.7067 147.429L69.8764 139.334L94.5886 148.997L91.4864 136.632L82.2107 118.11L67.8556 121.712L56.6767 106.538L47.4476 123.055L23.0236 97.4564L29.7537 88.0631L42.5198 94.5292L47.8049 80.0597L64.7544 79.2821L53.2715 63.5806L66.0081 35.7599L70.1304 34.4235L75.9369 32.9667L80.6144 31.7932L85.2733 31.2287L98.7067 34.2037L94.6593 47.4563L108.07 39.4083L115.966 58.5781L126.289 55.9883L134.581 58.2892L143.167 69.2786L146.252 66.5407L157.994 75.0765L166.343 89.9025L160.776 86.1626L165.554 105.208L165.079 112.881Z" fill="#D4BDC5"/>
</svg>
