<svg width="505" height="504" viewBox="0 0 505 504" fill="none" xmlns="http://www.w3.org/2000/svg">
<circle cx="252" cy="252" r="252" fill="#B8A2A2"/>
<path d="M368.173 60.164L408.441 53.6202L408.851 53.1528L428.163 69.0449L444.599 86.3393L452.406 95.2202L458.98 105.036L466.376 115.787L472.54 126.537L481.99 144.299L491.03 169.072L494.728 180.757L498.015 194.312L502.946 221.89L505 242.924L503.767 266.762L502.124 286.393L498.015 311.166L487.332 347.625L471.718 381.746L453.639 407.921L435.148 427.553L413.782 447.652L398.168 457L388.307 449.521L393.648 420.074L375.158 387.822L393.648 357.44L375.158 337.809L418.302 277.045H382.554L325.851 289.665V331.265L276.955 351.364L315.579 387.822L229.292 436.901L208.337 412.128L234.634 381.746L198.886 357.44L208.337 310.699L157.797 331.265L90.8218 277.512L90 265.36V248.533V234.978L91.6436 221.89L108.901 187.301L142.183 207.4L129.446 165.333L186.97 156.919V127.004L198.886 105.971L234.634 90.0787L229.292 79.7955L260.52 53.6202L306.54 41L292.569 53.6202H347.629L368.173 60.164Z" fill="#C9C1C1"/>
</svg>
