<svg width="266" height="284" viewBox="0 0 266 284" fill="none" xmlns="http://www.w3.org/2000/svg">
<circle cx="119" cy="165" r="119" fill="#A8828F"/>
<path d="M120.412 61.2131L129.621 49.9513L129.621 49.7296L138.525 49.398L146.992 50.1198L151.171 50.6401L155.241 51.7008L159.752 52.8163L163.933 54.2231L170.645 56.7206L178.9 61.183L182.643 63.4216L186.718 66.2555L194.538 72.4362L200.046 77.5536L202.5 80.5L208 86L215 94L223 107.137L226.5 114L229.5 121L225.241 133.648L224.933 143.248L223.967 153.653L228.489 160.14L222.165 188.801L207.233 181.434L199.545 146.845L197.318 134.381L187.751 133.523L184.942 107.137L175.397 115.588L163.231 132.353L173.041 143.435L164.725 160.347L183.636 160.929L172.168 194.4L160.731 192.755L160.588 178.445L145.311 180.42L136.812 165.735L131.89 200.53L99.505 200.119L94.5208 181.631L88.8503 195.642L87.3562 173.537L77.5063 186.218L54.5106 179.675L52.4381 141.253L73.0979 126.594L94.8423 129.821L87.7879 121.852L86.0096 113.433L65.2715 91.6172L59.8719 77.5339L62.038 63.1794L99.4347 70.6774L98.6804 77.3417L129.711 77.6917L120.412 61.2131Z" fill="#BEADB3" fill-opacity="0.49"/>
<path d="M118 274L103.5 283.5L91.5 281L81.5 278L69.5 274L60.5 269L54 265L46.5 259.5L39.5 254.5L34 248.5L24.5 238L17 226.5V219L40 233.5L51 228L37 212.5L60 216.5L83.5 223.5L73.5 228L93 232V243.5L107.5 249.5L103.5 261L118 274Z" fill="#B397A0"/>
</svg>
