<svg width="180" height="182" viewBox="0 0 180 182" fill="none" xmlns="http://www.w3.org/2000/svg">
<circle cx="86" cy="86" r="86" fill="#A4959A"/>
<path d="M136.398 138.476L137.017 150.458L137.14 150.593L131.886 155.732L126.315 159.985L123.474 161.983L120.4 163.592L117.028 165.411L113.695 166.869L108.211 169.064L100.695 170.916L97.1686 171.623L94.4995 171.623L88.4995 172.151L81.4995 172.151L75.9995 171.623L69.9995 170.916L62.9995 169.064L56.9995 166.869L48.2897 163L39.4995 158L29.9995 151.5L27.092 146.314L21.9142 139.425L15.9995 136.422L29.9995 122L29.9995 133.5L40.6028 130.044L48.8723 136.422L55.1909 131.643L71.5322 146.2L72.6776 135.748L70.8135 118.765L58.6795 117.435L54.3838 102.497L42.5119 112.624L30.9615 85.8263L38.8588 80.4911L46.878 89.1511L55.113 79.4761L68.4438 83.7334L32.1563 56.2013L52.1621 38.5L56.9994 33.5L72.6778 28.1913L81.5 12L113.694 23.4999L129.052 38.5L144.121 60.2367L113.983 82.4019L122.709 83.3581L128.462 87.5145L153.22 89.3418L164.324 94.9495L170.958 104.917L143.963 121.067L140.73 116.579L121.585 133.567L136.398 138.476Z" fill="#BDB6B8" fill-opacity="0.49"/>
</svg>
