<svg width="204" height="209" viewBox="0 0 204 209" fill="none" xmlns="http://www.w3.org/2000/svg">
<circle cx="110" cy="115" r="94" fill="#CAB0B9"/>
<path d="M27.8241 106.535L19.3477 94.712L19.1335 94.6548L21.1311 85.9709L24.032 77.9836L25.6221 74.0841L27.7057 70.4303L29.9567 66.366L32.4033 62.6953L36.5619 56.8647L43.0194 50.055L46.1552 47.0237L49.9518 43.8275L57.955 37.8859L64.3299 33.8991L72.1201 30.518L78.6353 27.9342L87.1798 25.3236L100.491 22.9621L113.84 22.5453L125.049 24.1741L134.238 26.9703L144.033 30.611L149.489 34.1171L148.672 38.4506L138.443 41.4077L131.103 52.4197L118.488 51.3258L115.169 60.3393L88.9623 56.1833L94.6365 67.5994L107.658 83.7092L120.911 77.1219L135.075 89.5543L140.56 71.4465L169.892 91.2309L165.326 101.846L151.473 98.2589L149.403 113.524L133.012 117.907L147.587 130.791L141.093 160.691L137.352 162.878L131.991 165.543L127.672 167.689L123.242 169.237L109.483 169.203L110.603 155.391L99.2231 166.12L87.4116 149.082L77.8813 153.819L69.2888 153.344L58.5515 144.445L56.1233 147.779L42.8274 141.951L31.502 129.253L37.7401 131.716L29.0005 114.132L27.8241 106.535Z" fill="#D4BDC5"/>
</svg>
